<svg width="24" height="24" viewBox="0 0 24 24" fill="none" xmlns="http://www.w3.org/2000/svg">
<path d="M2 9.99997L10.7506 2.99948C11.481 2.41513 12.519 2.41513 13.2494 2.99948L22 9.99997" stroke="#868686" stroke-width="1.5" stroke-linecap="round" stroke-linejoin="round"/>
<path d="M9.47763 4.04946L5.47763 7.29946C4.75138 7.88954 4.38825 8.18457 4.19412 8.59242C4 9.00027 4 9.46816 4 10.4039V14C4 17.7712 4 19.6569 5.17157 20.8284C6.34315 22 8.22876 22 12 22C15.7712 22 17.6569 22 18.8284 20.8284C20 19.6569 20 17.7712 20 14V10.4039C20 9.46816 20 9.00027 19.8059 8.59242C19.6117 8.18457 19.2486 7.88954 18.5224 7.29946L14.5224 4.04946C13.3142 3.0678 12.7101 2.57697 12 2.57697C11.2899 2.57697 10.6858 3.0678 9.47763 4.04946Z" stroke="#868686" stroke-width="1.5"/>
<path d="M9.75 16.25H14.25" stroke="#868686" stroke-width="1.5" stroke-linecap="round"/>
</svg>
