<svg width="24" height="24" viewBox="0 0 24 24" fill="none" xmlns="http://www.w3.org/2000/svg">
<path d="M20.5 20.5L16 16M18 11C18 11.9193 17.8189 12.8295 17.4672 13.6788C17.1154 14.5281 16.5998 15.2997 15.9497 15.9497C15.2997 16.5998 14.5281 17.1154 13.6788 17.4672C12.8295 17.8189 11.9193 18 11 18C10.0807 18 9.1705 17.8189 8.32122 17.4672C7.47194 17.1154 6.70026 16.5998 6.05025 15.9497C5.40024 15.2997 4.88463 14.5281 4.53284 13.6788C4.18106 12.8295 4 11.9193 4 11C4 9.14348 4.7375 7.36301 6.05025 6.05025C7.36301 4.7375 9.14348 4 11 4C12.8565 4 14.637 4.7375 15.9497 6.05025C17.2625 7.36301 18 9.14348 18 11Z" stroke="#868686" stroke-width="2" stroke-linecap="round" stroke-linejoin="round"/>
</svg>
