<svg width="24" height="24" viewBox="0 0 24 24" fill="none" xmlns="http://www.w3.org/2000/svg">
<circle cx="12.5" cy="12.5" r="9.5" fill="#1FA45B"/>
<path d="M11.3409 15.5227V15.4545C11.3485 14.7311 11.4242 14.1553 11.5682 13.7273C11.7121 13.2992 11.9167 12.9527 12.1818 12.6875C12.447 12.4223 12.7652 12.178 13.1364 11.9545C13.3598 11.8182 13.5606 11.6572 13.7386 11.4716C13.9167 11.2822 14.0568 11.0644 14.1591 10.8182C14.2652 10.572 14.3182 10.2992 14.3182 10C14.3182 9.62879 14.2311 9.30682 14.0568 9.03409C13.8826 8.76136 13.6496 8.55114 13.358 8.40341C13.0663 8.25568 12.7424 8.18182 12.3864 8.18182C12.0758 8.18182 11.7765 8.24621 11.4886 8.375C11.2008 8.50379 10.9602 8.70644 10.767 8.98295C10.5739 9.25947 10.4621 9.62121 10.4318 10.0682H9C9.0303 9.42424 9.19697 8.87311 9.5 8.41477C9.80682 7.95644 10.2102 7.60606 10.7102 7.36364C11.214 7.12121 11.7727 7 12.3864 7C13.053 7 13.6326 7.13258 14.125 7.39773C14.6212 7.66288 15.0038 8.02652 15.2727 8.48864C15.5455 8.95076 15.6818 9.47727 15.6818 10.0682C15.6818 10.4848 15.6174 10.8617 15.4886 11.1989C15.3636 11.536 15.1818 11.8371 14.9432 12.1023C14.7083 12.3674 14.4242 12.6023 14.0909 12.8068C13.7576 13.0152 13.4905 13.2348 13.2898 13.4659C13.089 13.6932 12.9432 13.964 12.8523 14.2784C12.7614 14.5928 12.7121 14.9848 12.7045 15.4545V15.5227H11.3409ZM12.0682 18.8864C11.7879 18.8864 11.5473 18.786 11.3466 18.5852C11.1458 18.3845 11.0455 18.1439 11.0455 17.8636C11.0455 17.5833 11.1458 17.3428 11.3466 17.142C11.5473 16.9413 11.7879 16.8409 12.0682 16.8409C12.3485 16.8409 12.589 16.9413 12.7898 17.142C12.9905 17.3428 13.0909 17.5833 13.0909 17.8636C13.0909 18.0492 13.0436 18.2197 12.9489 18.375C12.858 18.5303 12.7348 18.6553 12.5795 18.75C12.428 18.8409 12.2576 18.8864 12.0682 18.8864Z" fill="white"/>
</svg>
